<?xml version="1.0" encoding="UTF-8" standalone="no"?>
<svg
   xmlns:dc="http://purl.org/dc/elements/1.1/"
   xmlns:cc="http://creativecommons.org/ns#"
   xmlns:rdf="http://www.w3.org/1999/02/22-rdf-syntax-ns#"
   xmlns:svg="http://www.w3.org/2000/svg"
   xmlns="http://www.w3.org/2000/svg"
   viewBox="0 0 4800 3200"
   height="3200"
   width="4800"
   xml:space="preserve"
   id="svg2"
   version="1.1"><metadata
     id="metadata8"><rdf:RDF><cc:Work
         rdf:about=""><dc:format>image/svg+xml</dc:format><dc:type
           rdf:resource="http://purl.org/dc/dcmitype/StillImage" /></cc:Work></rdf:RDF></metadata><defs
     id="defs6" /><g
     transform="matrix(1.3333333,0,0,-1.3333333,0,3200)"
     id="g10"><g
       transform="scale(0.1)"
       id="g12"><g
         transform="scale(2.20859)"
         id="g14"><path
           id="path24"
           style="fill:#ffffff;fill-opacity:1;fill-rule:evenodd;stroke:none"
           d="m 15852.9,13266.6 c -117.2,-312 -165.4,-487.2 -58.7,-648.6 32.5,438.1 203.2,609.9 505.8,480.1 -27.2,157.5 -176.3,213.7 -447.1,168.5" /></g><g
         transform="scale(1.21566)"
         id="g26"><path
           id="path28"
           style="fill:#f0f0ef;fill-opacity:1;fill-rule:evenodd;stroke:none"
           d="m 13085.9,14081.6 c -82.9,-142.8 -133.9,-309.7 -153,-500.9 -148.4,-454.5 -222.7,-681.8 -222.7,-681.8 -46.8,-168.8 -37.5,-326.5 27.9,-473 -306.1,-510.2 -459.2,-765.3 -459.2,-765.3 222.6,-194.8 333.9,-292.2 333.9,-292.2 65,-445.2 97.4,-667.8 97.4,-667.8 241.2,-371.1 361.8,-556.6 361.8,-556.6 1029.6,584.4 1544.4,876.6 1544.4,876.6 120.6,1326.4 180.9,1989.6 180.9,1989.6 1001.8,593.7 1502.7,890.5 1502.7,890.5 -725.4,148.7 -1708.7,102.4 -2949.8,-139.1 -97.9,-138 -186.1,-31.4 -264.3,320 z m 622.5,-864.4 c 112.6,-19.9 199,-79.7 157.1,-261.5 -88.6,-384.5 -40.4,-308.5 226.4,-552.4 411.5,-376.1 228.6,-697 -71.8,-1021.9 -469.1,-507.4 -825.7,-13.5 -968.9,206.2 -164.2,-61.5 -307.9,0 -268,69.5 76.4,187.8 128.5,316.1 156.5,385.1 55.5,136.6 595.6,253.9 765.3,317.6 26,61.3 -161.2,257.8 -559.2,395.5 -130.8,49.5 -156.7,92.7 -122.8,266.9 16.9,94.8 42.1,160.7 161.6,193.2 110.7,30 410.7,21.8 523.8,1.8" /></g><path
         id="path30"
         style="fill:#ffffff;fill-opacity:1;fill-rule:evenodd;stroke:none"
         d="m 15640.4,13484.7 c 122.1,-10.9 218.4,-64.5 215.1,-119.6 -3.3,-55.1 -105,-90.9 -227,-80 -122.1,10.9 -218.4,64.4 -215.1,119.6 3.3,55.1 104.9,90.9 227,80" /><path
         id="path32"
         style="fill:#ffffff;fill-opacity:1;fill-rule:evenodd;stroke:none"
         d="m 15385.8,15416.5 c 100.9,-150.6 241.8,-159.1 321.4,-59.2 -89.1,239.4 -106,574.9 33.8,921.8 -132.6,-24.7 -256.6,-351.7 -355.2,-862.6" /><path
         id="path34"
         style="fill:#ffffff;fill-opacity:1;fill-rule:evenodd;stroke:none"
         d="m 14952.4,14196.5 c 74.4,-241.8 209,-317.2 382.7,-255.8 -148.9,98.4 -168.4,152.1 -75.9,305.1 254.3,420.6 403.6,669.6 403.6,669.6 -62,157.8 -93.1,236.8 -93.1,236.8 -411.5,-637.1 -617.3,-955.7 -617.3,-955.7" /><g
         transform="scale(1.1489)"
         id="g36"><path
           id="path38"
           style="fill:#ffffff;fill-opacity:1;fill-rule:evenodd;stroke:none"
           d="m 15957.9,12886.3 c 26.2,342.1 318.7,290.9 342.1,35.3 -91.1,147.9 -231,135.9 -255,-2 -13.5,-77 64.1,-118.1 116.3,-171.9 84.5,-87.2 33.7,-135.6 -48.8,-190.4 -67.9,-45.1 -85.2,-137.7 -43.3,-192.2 -154.2,16.3 -147.8,114.9 -128.2,196.7 11.5,48.7 50.8,97.6 80.8,135 62.3,77.6 -72.2,77.5 -63.9,189.5" /></g><g
         transform="scale(1.27773)"
         id="g40"><path
           id="path42"
           style="fill:#ffffff;fill-opacity:1;fill-rule:evenodd;stroke:none"
           d="m 12095.1,9676.46 c 13,-65.82 21.3,-113.33 7.4,-179.78 -46.4,101.12 -109.7,223.14 -130.7,365.18 -26.2,176.34 62.9,342.44 33.6,425.04 -25.6,72.3 -41.1,192.2 -1.2,256.1 -46.3,31.8 -58.4,109.9 -49.5,175.5 -18.4,21.9 -61.7,51.2 -177.6,115.2 -141.5,78 -171.5,209.2 -82.3,345.9 65.4,115.8 181.4,338.5 283,507.6 107.1,178.5 51.4,205.2 24.9,364.5 -20.1,120.8 118.2,479.3 211.1,578.9 h 22.2 c -53.9,-122.6 -133.6,-370.3 -116.5,-542.6 19.5,5 48.4,13 67,17.2 36.1,-41.9 85.7,-80.6 85.7,-80.6 l -33.2,90.5 c 15.9,2.4 31.5,4.2 47.4,5 35.8,-46.1 65.7,-70.2 65.7,-70.2 -9.2,25.7 -15.5,50 -19.6,70.1 39.8,-2.4 81.2,-11.1 126.9,-29.3 380.5,-151 577,-283.3 549.5,-298 -150.9,40.7 -509.2,165.7 -695.9,144 -20.3,-2.4 -42.3,-8.4 -65,-16.5 232.6,-31.3 419.8,-91.9 561.7,-181.9 -144.9,-31.8 -289.6,-75 -434.3,-105.5 -68,-14.4 -121.1,-13.9 -150.8,41.4 -12.5,23.3 -28,52 -46.4,86.2 l -37.8,-83.9 c -89.5,-130 -200.2,-303.3 -280.5,-447.1 -83.7,-150.2 -130.8,-225.4 48.5,-286.2 120.1,-40.7 305.7,-84 412.4,-35.4 61,27.8 70.2,56.9 75.7,120.4 110.5,-40.1 67.9,-167.2 30.4,-209.2 190.9,-53 309.2,-277.1 399.3,-455.9 39.3,-78.2 89.8,-215.4 216.6,-81.4 339.1,310.4 612.4,437.9 746.8,657.8 102.6,167.8 92.9,300.3 84.7,469.3 -14.3,293.1 -193.2,471 -447.6,598.5 -153,80.8 -188.1,50.4 -133.5,200.2 43,118.9 70.4,199.5 92.4,259.2 44.6,120.9 49.9,151.7 126.8,178.8 159,56 305.2,98.5 468.9,138.6 294.2,72 608.2,84.7 747.6,100.9 -516.2,46.8 -1249.4,-114.4 -1765.3,-60.9 -236.7,24.5 -433.2,190.2 -457.6,460.8 -65.3,-192.1 12.8,-340.8 152.3,-439.9 -353.8,21.2 -687.5,293.3 -673.8,846.9 -99.4,-374.8 26.6,-584.5 211.7,-753.2 -366.2,26.8 -556.8,477 -532.3,769.3 38.6,462.5 413.3,814.3 970,778 -48.6,-255.1 335.5,-231.9 768.1,-247.2 577.8,-20.4 929.4,6.5 1469.3,-130.3 525.9,-133.2 996.4,-374.5 955.7,-1174.8 473,-603.2 -138.9,-1162.5 -282.3,-1623.5 -61.1,-196.4 -120.8,-384.1 -115.4,-885.8 l -596.1,736 c -29.8,-50.1 -58,-88 -84.9,-116.2 -72,-75.6 -100.6,-78.1 -190.4,-98.9 -73.6,-17.1 -132.6,0.5 -131.8,62.3 50.3,11 164.2,4.8 226,105.4 27.1,44.1 44.8,103.5 72,170 64.1,157 117.5,252.9 55.6,441.8 -34.9,106.5 -154.3,190.6 -253.2,188.9 -115.5,-1.9 -199.5,-105.8 -256.5,-235.8 -86.6,-197.6 -95.6,-540.8 -80.1,-843.2 l 27.9,-878.53 c 13.1,-338.96 -114.5,-437.26 -403.3,-585.65 -313.4,-150.03 -667.4,-278.14 -1028.5,-388.65 -301.5,-92.28 -614.8,-105.11 -657.5,143.06 -21,122.02 39.8,471.86 -33.4,551.53 z m 106.2,585.84 59,24.8 c -54.5,28.9 -130.5,54.6 -143.6,122.8 -16.3,85.3 34.1,109.9 106,112.8 280.4,11.8 385.4,-359.7 277.5,-525.52 -2.7,57.92 11.9,38.22 2.3,101.72 -39.3,-11.2 -120.5,-51.1 -196.7,-50.5 -156,1.2 -113.1,71.3 -104.5,213.9" /></g><g
         transform="scale(1.29469)"
         id="g44"><path
           id="path46"
           style="fill:#ffffff;fill-opacity:1;fill-rule:evenodd;stroke:none"
           d="m 15572.9,9811.13 c 104.2,-135.17 225,-271.8 362.1,-409.91 l -311.3,-101.87 h 415.4 c 81.7,-78.09 168.7,-156.64 260.9,-235.66 -737,82.96 -1766.1,-166.14 -3635.5,-747.36 123,168.85 1339.8,969.04 2908.4,1494.8" /></g><path
         id="path48"
         style="fill:#ffffff;fill-opacity:1;fill-rule:evenodd;stroke:none"
         d="m 7875.31,7897.2 c -62.64,0 -118,16.9 -166.07,49.8 -48.55,-32.9 -93.21,-49.8 -134.48,-49.8 -41.27,0 -75.26,4.2 -101.97,11.6 -26.22,8 -49.52,18.5 -69.43,31.8 -40.79,27 -61.18,60.9 -61.18,101.2 0,20.6 5.33,38.6 15.53,54 20.88,-17.5 47.59,-26 79.64,-26 84.48,0 142.74,39.2 174.79,117.6 v 759.1 c 0,46.6 -8.74,82.1 -26.71,107 -28.64,40.3 -77.2,78.4 -146.62,114.9 63.6,31.8 105.36,59.9 125.27,83.7 32.04,40.3 48.06,85.3 48.06,135.1 v 654.7 c -32.05,80 -90.31,119.7 -174.79,119.7 -32.05,0 -58.76,-9 -79.64,-26.5 -10.2,15.4 -15.53,33.4 -15.53,53.6 0,20.1 5.33,39.2 16.02,56.6 11.18,17.5 26.22,32.9 45.16,45 43.7,29.2 93.71,43.5 150.03,43.5 56.32,0 108.28,-17 155.85,-51.4 49.06,34.4 103.91,51.4 164.61,51.4 66.52,0 124.29,-19.1 173.82,-57.2 105.36,48.2 210.24,72.5 314.14,72.5 104.39,0 199.56,-11.1 285.5,-33.3 85.94,-22.3 163.14,-53.5 232.57,-93.8 150.52,-86.9 244.72,-199.7 281.61,-338.5 20.89,-76.2 66.04,-132.9 134.98,-170.5 -76.71,-57.8 -124.29,-124 -142.26,-198.7 -39.81,-163.1 -120.41,-270.1 -241.79,-319.4 178.19,-54 294.71,-181.1 348.61,-381.9 18.93,-71.5 64.1,-129.8 134.99,-175.3 -72.84,-44.5 -121.88,-111.8 -146.65,-201.8 -24.27,-90.1 -67.97,-171.1 -130.12,-242.6 -62.15,-72.1 -134.01,-131.4 -216.55,-178 -159.74,-89 -339.38,-133.5 -539.43,-133.5 -119.45,0 -226.26,23.3 -319.97,69.9 -49.04,-36 -105.37,-54.5 -167.99,-54.5 z m 526.31,1371.9 c 83.52,0 142.6,21.9 178.2,65.1 36.73,44.7 55.35,121.3 55.35,229.9 v 358.6 c 0,63.1 -30.59,116 -91.28,159.5 -52.93,38.6 -101.97,57.7 -147.13,57.7 -45.14,0 -82.04,-5.8 -110.69,-18 -29.13,-11.6 -54.86,-28.1 -77.69,-48.7 -48.55,-43.5 -72.83,-95.9 -72.83,-156.8 v -478.9 l -348.92,-168.4 z m -266.07,-935.5 c 0,-72.5 25.25,-131.9 75.75,-178.5 48.07,-43.4 106.33,-65.1 173.33,-65.1 65.55,0 120.42,15.3 165.09,46.6 85.45,60.9 128.18,130.8 128.18,209.2 v 455 c 0,93.8 -28.16,164.8 -83.99,212.4 -47.59,40.3 -109.74,60.4 -186.46,60.4 h -271.9 v -740" /><path
         id="path50"
         style="fill:#ffffff;fill-opacity:1;fill-rule:evenodd;stroke:none"
         d="m 9568.38,7939.5 c -35.45,-28 -75.25,-42.3 -120.42,-42.3 -45.15,0 -81.08,12.7 -108.27,38.1 -26.71,25.4 -40.31,54.6 -40.31,87.9 0,32.9 4.86,57.2 14.09,72.6 27.67,-17.5 61.66,-26 101.96,-26 40.31,0 70.41,5.9 90.81,17.5 20.38,12.2 40.29,28.6 59.22,49.3 l 129.85,419.9 -180.78,162.3 1093.37,1 -329.7,1196.6 -276.2,-1019.3 h -206.28 c 8.66,32.2 13,61.2 13,88.1 0,94.2 -40.79,154.1 -122.36,180.1 74.78,31.2 127.22,64.6 157.8,100.6 47.58,57.2 84.98,131.9 112.16,225.1 l 156.88,572.6 c -30.6,44.5 -66.6,66.8 -108.3,66.8 -41.78,0 -80.62,-9.6 -116.56,-29.2 -9.7,18.6 -14.08,39.2 -14.08,62.5 0,23.4 4.38,45.6 13.12,66.3 9.22,20.6 21.85,38.6 37.87,54 35.92,33.4 87.35,49.8 153.45,49.8 66.5,0 122.8,-21.7 169.4,-65.2 47.6,43.5 106.4,65.2 177.3,65.2 70.4,0 126.7,-20.7 168.4,-62 60.7,41.3 122.4,62 185,62 62.7,0 111.2,-12.7 145.7,-38.7 34.5,-25.9 51.9,-60.9 51.9,-105.4 0,-21.2 -5.8,-39.2 -17,-54.6 -21.8,17.5 -47.5,26.5 -76.7,26.5 -63.6,0 -104.8,-47.1 -123.8,-141.4 l 182.1,-634.6 c 22.8,-79.4 79.6,-141.9 170.4,-186.4 25.8,-12.2 52,-23.3 78.7,-33.9 -95.2,-33.9 -142.3,-85.3 -142.3,-153.6 0,-26 3.4,-48.8 11.2,-68.4 l 271.9,-794.5 c 41.7,-47.7 83.5,-71.5 126.2,-71.5 42.7,0 76.2,9 99.6,26.4 10.6,-8.4 16,-23.8 16,-46.6 0,-22.7 -3.4,-43.4 -10.2,-62.5 -6.8,-19.6 -17,-36 -31.1,-50.8 -30.6,-30.8 -75.2,-46.6 -134,-46.6 -58.8,0 -109.7,18 -153.4,52.9 -49.5,-34.9 -105.4,-52.9 -167.1,-52.9 -62.1,0 -115.5,17.4 -160.2,51.3 -42.7,-33.9 -92.7,-51.3 -151,-51.3 -57.8,0 -105.3,13.2 -143.2,39.7 -38.4,26.5 -58.3,64.1 -59.7,112.8 0,28.6 4.8,46.6 15.5,54 25.2,-17.4 51.5,-26.4 78.2,-26.4 55.8,0 95.1,12.7 117.9,37.6 l -108.2,395.7 h -769.6 l -93.7,-343.3 c 38.83,-65.1 85.93,-97.5 141.76,-97.5 55.34,0 96.64,8.5 124.34,26 10.2,-18.5 15.5,-44 15.5,-76.8 0,-32.3 -14.6,-60.9 -44.2,-85.3 -29.1,-24.4 -66.98,-36.5 -113.6,-36.5 -46.61,0 -89.33,13.2 -128.18,39.2 -33.98,-26 -73.31,-39.2 -117.02,-39.2 -44.18,0 -82.05,14.3 -113.12,42.3 z m 1730.92,260.6 2.9,-9.5 -2.9,9.5" /><path
         id="path52"
         style="fill:#ffffff;fill-opacity:1;fill-rule:evenodd;stroke:none"
         d="m 12276.2,7947 c -48,-32.9 -103.4,-49.8 -165.1,-49.8 -61.6,0 -116.5,16.9 -164.6,49.8 -48.5,-32.9 -93.2,-49.8 -134.4,-49.8 -41.3,0 -75.3,4.2 -102,11.6 -26.2,8 -49.5,18.5 -69.4,31.8 -40.8,27 -61.2,60.9 -61.2,101.2 0,20.6 5.3,38.6 15.5,54 20.9,-17.5 47.6,-26 79.6,-26 84.5,0 142.8,39.2 174.8,117.6 v 759.1 c 0,47.7 -8.7,82.6 -26.7,105.4 -28.6,38.1 -77.2,76.3 -146.6,113.4 64.6,32.3 106.3,60.4 125.3,85.2 32,40.3 48,85.9 48,136.7 v 654.7 c -32,80 -90.3,119.7 -174.8,119.7 -32,0 -58.7,-9 -79.6,-26.5 -10.2,15.4 -15.5,33.4 -15.5,53.6 0,20.1 5.3,39.2 16,56.6 11.2,17.5 26.2,32.9 45.2,45 43.7,29.2 93.7,43.5 150,43.5 56.3,0 108.3,-17 155.8,-51.4 49.1,34.4 103.9,51.4 164.6,51.4 60.7,0 116.1,-17 165.1,-51.4 107.3,44.5 226.3,66.7 356.4,66.7 130.6,0 239.9,-12.7 327.8,-38.6 88.3,-26 164.1,-62.5 227.7,-110.2 128.2,-96.4 207.8,-229.9 238.9,-402 12.6,-76.3 57.7,-134.6 135.4,-173.8 -74.3,-45.5 -122.3,-118.1 -145.2,-217.2 -46.6,-205 -162.6,-332.6 -348.6,-383.5 95.7,-27.5 174.3,-85.3 235,-172.1 62.2,-90.1 93.7,-196 93.7,-317.8 v -155.2 c 0,-149.4 44.2,-245.3 132.1,-288.7 26.7,-13.8 55.8,-20.2 86.9,-20.2 31.6,0 57.3,8.5 78.2,26 10.7,-15.4 15.5,-33.4 15.5,-53.5 0,-20.1 -4.4,-38.7 -14.1,-56.7 -9.2,-17.5 -22.3,-32.3 -38.3,-45 -34,-28.6 -73.8,-43.4 -119.5,-43.4 -45.6,0 -90.3,13.7 -133.5,40.7 -79.6,-47.6 -154.4,-52.4 -223.3,-14.3 -26.7,-17.4 -54.9,-26.4 -84,-26.4 -29.6,0 -57.8,7.4 -85,21.7 -26.7,14.8 -51,38.6 -71.9,71.5 -44.1,71.5 -66.5,181.1 -66.5,328.9 v 115 c 0,238.9 -62.6,394.1 -187.9,465.6 -41.7,23.8 -90.3,35.5 -146.6,35.5 h -166.6 V 8180 c 25.8,-73.6 74.8,-110.2 146.7,-110.2 32.5,0 58.7,8.5 79.6,26 10.7,-15.4 16,-38.1 16,-67.8 0,-30.2 -15,-59.3 -45.1,-87.9 -29.6,-28.6 -74.8,-42.9 -134.5,-42.9 -59.7,0 -112.7,16.9 -159.3,49.8 z m 370,2196.1 c -182.1,0 -273.4,-77.4 -273.4,-231.5 v -598.4 l -314.2,-172.5 h 546.5 l 0.1,1.3 c 67.3,0.4 115.1,4.6 143,13.2 28.6,9 53.4,23.8 74.3,45.6 42.7,44.4 64,119.1 64,223.5 v 453.4 c 0,129.3 -49,211.9 -148,247.9 -29.2,11.7 -60.2,17.5 -92.3,17.5" /><g
         transform="scale(1.09412)"
         id="g54"><path
           id="path56"
           style="fill:#ffffff;fill-opacity:1;fill-rule:evenodd;stroke:none"
           d="m 15067.2,7217.84 c -57.3,0 -107.8,15.44 -151.8,45.51 -44.3,-30.07 -85.2,-45.51 -122.9,-45.51 -37.8,0 -68.7,3.84 -93.2,10.6 -24,7.31 -45.3,16.91 -63.5,29.06 -37.3,24.68 -55.9,55.66 -55.9,92.5 0,18.83 4.9,35.28 14.3,49.35 19.1,-15.99 43.5,-23.76 72.7,-23.76 77.2,0 130.5,35.83 159.8,107.48 v 693.8 c 0,43.6 -8,75.5 -24.4,96.33 -26.2,34.82 -70.6,69.74 -134,103.65 58.9,29.52 97.1,55.2 114.4,77.87 29.3,36.83 44,78.51 44,124.94 v 598.38 c -29.3,73.11 -82.6,109.4 -159.8,109.4 -29.2,0 -53.6,-8.22 -72.7,-24.22 -9.4,14.07 -14.3,30.53 -14.3,48.99 0,18.37 4.9,35.83 14.7,51.73 10.2,15.99 24,30.07 41.2,41.13 40,26.69 85.7,39.76 137.1,39.76 51.6,0 99,-15.54 142.5,-46.98 44.8,31.44 96.3,46.98 154.5,46.98 58.1,0 110.9,-18.38 158.8,-55.21 91.9,36.83 197.9,55.21 318.2,55.21 89.6,0 166,-9.24 229,-28.61 l 115.8,-33.91 c 13.7,-3.84 27.1,-5.76 40.4,-5.76 24,0 36.4,19.38 36.4,57.13 0,9.23 -3.1,25.13 -9.3,47.98 24.4,4.75 55,7.22 92.3,7.22 37.3,0 68.7,-13.62 94.9,-40.67 26.2,-26.6 39.1,-65.35 39.1,-116.17 0,-50.36 -8.4,-87.65 -24.9,-111.41 23.6,-37.75 35.1,-83.72 35.1,-138.47 0,-54.2 -16.9,-99.71 -50.6,-136.46 10.7,-28.6 15.5,-56.21 15.5,-83.26 0,-26.68 -3.9,-51.36 -12.4,-73.66 -8,-22.22 -18.2,-40.68 -30.2,-56.12 -24.4,-27.15 -49.2,-41.13 -74.1,-41.13 -36.4,0 -69.6,8.68 -98.9,25.59 10.2,22.76 15.5,56.21 15.5,100.72 0,104.1 -24,195.13 -71.4,274.01 -65.3,107.48 -162.4,161.77 -292.5,161.77 -66.1,0 -125.6,-17.91 -178.9,-52.82 -53.2,-34.83 -90.9,-85.19 -112.7,-150.08 v -420.24 l -301,-162.78 386.2,2.56 c 26.7,0.18 46.6,0.45 60,1.46 13.2,0.91 27,2.92 40.8,5.76 36,5.85 63,13.06 82.1,22.75 36.4,18.92 54.6,65.35 54.6,139.02 0,41.59 -8.9,73.58 -27.1,96.33 17.3,13.53 38.6,19.84 64.8,19.84 58.2,0 100.3,-25.69 126.1,-76.5 9.7,-17.92 14.1,-37.75 14.1,-59.59 0,-21.76 -4.8,-48.9 -15.5,-80.8 35.5,-44.51 53.3,-97.34 53.3,-158.3 0,-61.06 -17.8,-113.79 -53.3,-157.84 10.7,-32.45 15.5,-61.52 15.5,-87.65 0,-25.69 -4.4,-50.82 -14.1,-74.04 -9.4,-23.76 -21.3,-42.59 -35.1,-56.66 -26.6,-26.6 -57.2,-40.22 -91,-40.22 -24.4,0 -45.7,7.77 -64.8,22.76 18.2,33.45 27.1,72.11 27.1,116.71 0,87.65 -22.2,141.85 -66.1,162.69 -39.1,17.37 -83.9,25.59 -134.1,25.59 -50.1,0 -90.9,-9.68 -122.5,-29.52 v -709.24 c 50.7,-96.33 147.8,-144.77 291.6,-144.77 162.9,0 273.8,54.74 332.9,164.6 68.2,125.95 102.4,260.49 102.4,404.25 0,41.68 -3.5,73.58 -10.1,96.34 21.6,23.76 43.9,35.37 67.4,35.37 23.5,0 41.3,-3.38 53.2,-10.61 12.5,-6.85 23.2,-15.53 32.9,-26.13 20.4,-25.69 31,-51.37 31,-77.97 l -7.9,-69.73 c 0,-17.92 4.4,-32.45 13.3,-43.6 17.3,-19.83 25.7,-38.75 25.7,-56.12 0,-17.46 -5.3,-38.75 -15.5,-62.97 20,-12.62 37.7,-30.53 54.2,-54.66 15.9,-24.22 23.9,-48.9 23.9,-74.58 0,-53.74 -20.8,-102.18 -62.6,-144.77 18.2,-28.61 27.5,-69.19 27.5,-122.47 0,-53.75 -14.2,-98.8 -42.6,-136.55 -28,-37.29 -64.8,-55.66 -109.6,-55.66 -24.4,0 -49.2,2.92 -75.5,8.22 3.6,20.84 5.4,41.68 5.4,62.43 0,43.6 -18.2,65.35 -54.5,65.35 -40.9,0 -81.8,-9.14 -122.6,-27.06 -96.2,-42.59 -205.5,-63.88 -328.4,-63.88 -122.5,0 -226.8,17.91 -312.4,52.73 -45.2,-34.82 -97.6,-52.73 -157.5,-52.73 z m 212.2,418.78 c 0,-2.93 0.3,-5.39 1.2,-7.31 l -1.2,7.31" /></g><g
         transform="scale(1.33683)"
         id="g58"><path
           id="path60"
           style="fill:#ffffff;fill-opacity:1;fill-rule:evenodd;stroke:none"
           d="m 15413.4,5975.91 c -56.7,-61.79 -110.4,-92.68 -161.6,-92.68 -32.7,0 -54.5,13.01 -66.2,39.19 16.4,21.77 24.7,54.31 24.7,97.85 v 17.43 c 0,4.41 -0.3,8.75 -1,12.71 -35.6,34.86 -53.4,76.08 -53.4,123.58 0,47.57 20.7,95.9 61.7,145.42 -12,26.55 -18.1,54.68 -18.1,84.45 0,29.7 4.3,57.45 12.3,83.56 8.3,25.8 19.3,48.39 33.4,67.77 29.8,42.79 59.2,63.8 88,63.8 28.6,0 49,-12.26 61.3,-36.87 -25.8,-29.7 -38.5,-75.63 -38.5,-138.24 0,-62.61 8.4,-117.29 25,-163.67 16.8,-46.38 40.4,-86.4 70.9,-119.69 65,-72.48 148.5,-108.91 249.9,-108.91 68.3,0 126,20.94 173.6,63.73 50.8,45.63 76.6,107.79 76.6,187.09 0,55.42 -12,100.61 -36.3,135.47 -37.4,54.3 -96.6,111.75 -176.5,171.97 -61.8,47.2 -111.2,70.91 -147.8,70.91 -37.8,0 -79.2,-16.6 -124.6,-49.89 12,39.2 18.1,76.07 18.1,110.18 0,7.48 -6.8,17.81 -20.3,30.07 l -39.2,38.45 c -124.3,124.4 -197.6,240.12 -220.5,347.09 -7.6,37.26 -11.6,83.63 -11.6,139.89 0,55.87 12.3,112.95 37.8,170.4 25,57.82 59.5,106.97 103.9,146.99 91.1,85.2 207.7,127.54 348.6,127.54 86.1,0 164.9,-15.04 236.5,-45.11 30.5,-13.09 65.4,-19.82 104.2,-19.82 16.4,0 30.9,1.2 44,3.14 13.3,1.57 24.6,9.5 34.8,23.79 9.1,14.66 13.8,27.75 13.8,39.19 0,11.9 -1.4,21.4 -4.4,29.33 5.1,2.02 12,3.21 20.8,3.21 9,0 18.5,-3.21 29.4,-9.95 10.5,-6.28 19.9,-15.4 28.7,-26.92 19.2,-26.56 28.6,-56.26 28.6,-89.17 0,-32.84 -8.3,-57.83 -25.3,-74.88 23.9,-22.96 35.9,-59.02 35.9,-107.79 0,-47.95 -14.9,-88.35 -44.7,-120.81 5.9,-20.64 8.8,-39.65 8.8,-56.25 0,-16.68 -2.9,-32.54 -8,-47.58 -5.5,-15.03 -12.7,-28.12 -21.9,-38.82 -20.6,-24.16 -40.3,-36.05 -58.4,-36.05 -29.5,0 -53.8,5.53 -73.8,16.23 12.4,30.89 18.2,64.18 18.2,99.86 0,35.68 -7.2,72.11 -21.8,109.74 -14.5,37.62 -34.9,70.16 -61,98.29 -55.6,57.07 -127.8,85.57 -217.2,85.57 -56.6,0 -103.2,-19 -139.4,-56.7 -34.2,-35.6 -50.9,-78.39 -50.9,-128.73 0,-38.08 8.4,-69.72 25.4,-95.53 29.8,-43.98 77,-89.54 141.7,-136.66 l 50.8,-37.26 c 28.3,-19.45 47.6,-28.95 57.4,-28.95 10.1,0 19.9,1.2 29.8,3.22 10.1,2.32 21,5.54 33,9.5 25.8,9.13 50.5,22.59 74.5,39.65 l -13.8,-65.38 c -4.4,-21.47 -6.2,-37.25 -6.2,-47.58 0,-16.23 7.3,-30.89 22.2,-43.98 132.5,-125.22 221.5,-230.25 266.2,-314.62 38.8,-73.68 58.5,-152.98 58.5,-238.1 0,-84.83 -12.7,-158.14 -38.5,-219.18 -25.5,-61.41 -62.9,-115.27 -111.6,-162.47 -107.8,-105.4 -248,-158.06 -420.5,-158.06 -121.3,0 -226.7,26.93 -316,80.04" /></g><g
         transform="scale(1.48634)"
         id="g62"><path
           id="path64"
           style="fill:#ffffff;fill-opacity:1;fill-rule:evenodd;stroke:none"
           d="m 15259.5,5345.62 c -32,-21.39 -67.9,-32.43 -108.1,-32.43 -40.2,0 -74.8,11.38 -103.5,33.51 -32.4,-22.13 -62.4,-33.51 -89.9,-33.51 -27.4,0 -49.9,2.83 -67.9,7.81 -18,5.38 -33,12.45 -46.1,21.39 -27.7,18.17 -41.8,40.98 -41.8,68.09 0,13.86 3.3,25.97 10.5,36.33 14,-11.77 31.6,-17.49 53.6,-17.49 56.8,0 96,26.37 117.5,79.12 v 510.72 c 0,54.16 -24.8,95.53 -74.5,123.32 l -42.1,23.89 c 56.9,28.46 92.5,59.47 107.2,92.98 6.2,15.34 9.4,33.84 9.4,56.31 v 440.48 c -21.5,53.82 -60.7,80.53 -117.5,80.53 -22,0 -39.6,-6.05 -53.6,-17.83 -7.2,10.36 -10.5,22.47 -10.5,36.06 0,13.53 3.6,26.38 10.8,38.08 7.5,11.78 17.6,22.14 31,30.28 28.8,19.65 61.8,29.27 99.3,29.27 37.3,0 72.2,-11.04 104.6,-33.51 28.7,22.47 63.3,33.51 103.8,33.51 40.5,0 76.5,-11.04 107.8,-33.51 30.1,22.47 63.4,33.51 100.7,33.51 54.2,0 92.8,-19.98 115.6,-59.55 7.8,-12.44 11.5,-25.63 11.5,-39.56 0,-13.86 -3.7,-25.63 -11.5,-34.58 -14,11.78 -31.7,17.83 -52.6,17.83 -49,0 -82,-25.97 -98.6,-78.38 V 6313.64 L 15139,6207 h 638.3 v 551.29 c -16.7,52.41 -49.3,78.38 -98.6,78.38 -21,0 -38.6,-6.05 -52.6,-17.83 -7.6,8.95 -11.5,20.72 -11.5,34.58 0,13.93 3.7,27.12 11.1,39.56 7.2,12.52 16.7,23.22 28.1,32.43 24.2,18.17 53.6,27.12 87.9,27.12 37.2,0 70.6,-11.04 100.6,-33.51 32.7,22.47 69,33.51 108.8,33.51 39.9,0 74.1,-11.04 102.9,-33.51 31,22.47 60.8,33.51 88.8,33.51 28.2,0 51,-2.49 69,-7.87 18,-5.32 33.6,-12.45 47,-21.4 27.5,-18.17 41.2,-40.57 41.2,-67.68 0,-14.27 -3.6,-26.38 -10.8,-36.74 -14,11.78 -31.7,17.83 -53.6,17.83 -56.8,0 -96,-26.71 -117.6,-80.53 v -440.48 c 0,-54.16 24.6,-96.55 73.5,-126.49 14.1,-8.2 28.4,-15.67 43.2,-22.8 -38.2,-20.32 -64.1,-36.74 -77.5,-49.19 -26.1,-26.37 -39.2,-59.2 -39.2,-98.02 v -510.72 c 21.6,-52.75 60.8,-79.12 117.6,-79.12 21.9,0 39.6,5.72 53.6,17.49 7.2,-10.36 10.8,-22.47 10.8,-35.99 0,-13.53 -3.9,-26.04 -11.1,-38.15 -7.5,-11.77 -17.4,-21.73 -30.1,-30.28 -29.4,-19.24 -63,-29.2 -101.2,-29.2 -37.9,0 -72.6,11.38 -103.6,33.51 -28.8,-22.13 -63,-33.51 -102.9,-33.51 -39.8,0 -76.1,11.38 -108.8,33.51 -30,-22.13 -63.4,-33.51 -100.6,-33.51 -54.2,0 -93.1,19.92 -116.6,59.48 -6.8,12.85 -10.5,26.04 -10.5,39.9 0,13.92 3.9,25.36 11.5,34.24 14,-11.77 31.6,-17.49 52.6,-17.49 49.3,0 81.9,26.04 98.6,78.04 v 550.28 h -452.7 v -550.28 c 16.6,-52 49.6,-78.04 98.6,-78.04 20.9,0 38.6,5.72 52.6,17.49 7.8,-8.88 11.5,-20.32 11.5,-34.24 0,-13.86 -3.7,-27.05 -10.9,-39.9 -7.4,-12.45 -17.3,-23.14 -29.4,-32.09 -22.8,-18.17 -51.9,-27.39 -86.8,-27.39 -36.6,0 -69.9,11.04 -100.7,32.43" /></g><g
         transform="scale(1.62655)"
         id="g66"><path
           id="path68"
           style="fill:#ffffff;fill-opacity:1;fill-rule:evenodd;stroke:none"
           d="m 15269,5015.72 c -48.4,54.72 -87.5,120.5 -117.6,197.35 -29.9,76.85 -48.4,149.83 -55.6,218.5 -6.8,68.74 -17.6,116.26 -31.9,142.63 -14,26.38 -34.3,46.61 -60.6,60.62 50.7,26.01 80.6,79.74 89.5,160.83 9,81.1 29.6,156.96 61.8,227.36 32,70.64 72.9,131.2 122.4,181.36 104.2,105.5 229.8,158.25 377,158.25 150.8,0 275.8,-48.81 374.9,-146.81 103.3,-101.63 163.9,-244.26 182.1,-427.29 7.5,-76.54 37.4,-127.69 89,-153.7 -50.5,-27.35 -80.6,-85.33 -89.8,-173.61 -9.3,-88.54 -27.8,-171.29 -55.3,-248.14 -27.4,-76.85 -64.2,-142.63 -110.1,-197.35 -96.2,-113.31 -226.3,-169.99 -390.2,-169.99 -156.7,0 -285.3,56.68 -385.6,169.99 z m 285.9,619.1 c -63.9,-33.87 -96.1,-88.59 -96.1,-165.13 v -283.3 c 0,-103.59 39.4,-169.99 118.2,-199.32 23.3,-9.1 48.7,-13.34 76.2,-13.34 27.1,0 52.5,4.24 75.5,13.34 23,8.79 42.9,22.13 60,40.02 34.9,36.83 52.2,89.89 52.2,159.3 v 283.3 c 0,76.54 -31.3,131.26 -94.3,165.13 63,31.91 94.3,83 94.3,153.7 v 227.97 c 0,70.64 -18.8,125.67 -56.7,165.08 -35.5,36.14 -79.7,54.41 -132,54.41 -89.2,0 -148.6,-40.71 -178.5,-122.1 -9.8,-27.36 -14.9,-59.95 -14.9,-97.39 v -227.97 c 0,-71.99 32.2,-123.08 96.1,-153.7" /></g><g
         transform="scale(1.75815)"
         id="g70"><path
           id="path72"
           style="fill:#ffffff;fill-opacity:1;fill-rule:evenodd;stroke:none"
           d="m 15574.2,4520.95 c -27.8,-19.28 -59.3,-29.18 -94.1,-29.18 -34.8,0 -66,9.62 -93.3,28.33 -27.7,-18.71 -53.1,-28.33 -76.5,-28.33 -23.5,0 -42.9,2.39 -58,6.6 -15,4.55 -28.2,10.52 -39.5,18.09 -23.2,15.36 -34.8,34.64 -34.8,57.56 0,11.72 3,21.96 8.8,30.71 11.9,-9.95 27.1,-14.78 45.3,-14.78 48,0 81.2,22.29 99.4,66.89 v 431.76 c 0,27.13 -5,46.98 -15.2,59.94 -16.3,21.68 -43.9,43.4 -83.4,64.51 36.8,18.37 60.5,34.35 71.3,48.45 18.2,22.93 27.3,48.86 27.3,77.76 v 372.38 c -18.2,45.5 -51.4,68.08 -99.4,68.08 -18.2,0 -33.4,-5.12 -45.3,-15.07 -5.8,8.76 -8.8,19 -8.8,30.48 0,11.44 3,22.3 9.1,32.2 6.3,9.95 14.9,18.71 25.7,25.59 24.8,16.61 53.3,24.75 85.3,24.75 32,0 61.6,-9.67 88.7,-29.24 27.8,19.57 59,29.24 93.3,29.24 34.2,0 65.1,-9.33 92.5,-28.33 53.6,24.69 113.8,37.03 180.9,37.03 67.1,0 125.4,-8.42 174.5,-25.6 48.9,-16.83 93.1,-40.66 132.6,-71.38 82,-63.59 136.1,-147.31 162.6,-251.57 10.8,-40.67 36.5,-73.83 76.8,-99.71 -41.4,-25.31 -69.3,-63.59 -83.4,-114.83 -13.8,-51.2 -37.3,-98.52 -69.8,-142.48 -32.7,-43.69 -69.9,-80.49 -112.2,-109.95 -85.6,-60.01 -176.7,-89.81 -273.4,-89.81 -42,0 -85.9,5.74 -132,17.46 v -337.11 c 14.7,-34.08 44.7,-56.66 90,-67.18 11.9,-2.73 25.2,-4.26 39.6,-4.26 14.6,0 27.8,4.83 39.7,14.78 5.8,-8.75 8.8,-18.99 8.8,-30.43 0,-11.43 -3.8,-22.01 -11.6,-32.24 -8,-9.96 -18.2,-18.38 -31.2,-25.6 -28.7,-16.27 -59.9,-24.69 -93.9,-24.69 -34,0 -66,9.9 -96.4,29.18 z m 55,708.02 c 0,-40.04 13.5,-72.29 40.6,-96.41 24.8,-22.29 56.6,-33.44 95.5,-33.44 59.4,0 102.3,24.74 128.8,74.11 9.1,17.18 13.5,38 13.5,62.68 v 398.89 c 0,42.48 -14.7,75.64 -44.5,99.76 -26.8,22.58 -53.8,33.73 -80.3,33.73 -26.8,0 -48.6,-2.73 -65.7,-8.42 -16.9,-5.74 -31.8,-13.88 -44.8,-25.31 -28.7,-24.74 -43.1,-59.04 -43.1,-103.06 v -402.53" /></g><path
         id="path74"
         style="fill:#ffffff;fill-opacity:1;fill-rule:evenodd;stroke:none"
         d="m 14321.8,7897.2 c -62.6,0 -118,16.9 -166.1,49.8 -48.5,-32.9 -93.2,-49.8 -134.5,-49.8 -41.2,0 -75.2,4.2 -101.9,11.6 -26.2,8 -49.5,18.5 -69.4,31.8 -40.8,27 -61.2,60.9 -61.2,101.2 0,20.6 5.3,38.6 15.5,54 20.9,-17.5 47.6,-26 79.6,-26 84.5,0 142.8,39.2 174.8,117.6 v 759.1 c 0,46.6 -8.7,82.1 -26.7,107 -28.6,40.3 -77.2,78.4 -146.6,114.9 63.6,31.8 105.4,59.9 125.3,83.7 32,40.3 48,85.3 48,135.1 v 654.7 c -32,80 -90.3,119.7 -174.8,119.7 -32,0 -58.7,-9 -79.6,-26.5 -10.2,15.4 -15.5,33.4 -15.5,53.6 0,20.1 5.3,39.2 16,56.6 11.2,17.5 26.2,32.9 45.2,45 43.6,29.2 93.7,43.5 150,43.5 56.3,0 108.3,-17 155.8,-51.4 49.1,34.4 103.9,51.4 164.6,51.4 66.6,0 124.3,-19.1 173.9,-57.2 105.3,48.2 210.2,72.5 314.1,72.5 104.4,0 199.6,-11.1 285.5,-33.3 85.9,-22.3 163.1,-53.5 232.6,-93.8 150.5,-86.9 244.7,-199.7 281.6,-338.5 20.9,-76.2 66,-132.9 135,-170.5 -76.7,-57.8 -124.3,-124 -142.3,-198.7 -39.8,-163.1 -120.4,-270.1 -241.8,-319.4 178.2,-54 294.7,-181.1 348.6,-381.9 19,-71.5 64.1,-129.8 135,-175.3 -72.8,-44.5 -121.9,-111.8 -146.6,-201.8 -24.3,-90.1 -68,-171.1 -130.2,-242.6 -62.1,-72.1 -134,-131.4 -216.5,-178 -159.7,-89 -339.4,-133.5 -539.4,-133.5 -119.5,0 -226.3,23.3 -320,69.9 -49.1,-36 -105.4,-54.5 -168,-54.5 z m 526.3,1371.9 c 83.5,0 142.6,21.9 178.2,65.1 36.7,44.7 55.4,121.3 55.4,229.9 v 358.6 c 0,63.1 -30.6,116 -91.3,159.5 -52.9,38.6 -102,57.7 -147.1,57.7 -45.2,0 -82.1,-5.8 -110.7,-18 -29.2,-11.6 -54.9,-28.1 -77.7,-48.7 -48.6,-43.5 -72.9,-95.9 -72.9,-156.8 v -478.9 l -348.9,-168.4 z M 14582,8333.6 c 0,-72.5 25.3,-131.9 75.8,-178.5 48.1,-43.4 106.3,-65.1 173.3,-65.1 65.6,0 120.4,15.3 165.1,46.6 85.5,60.9 128.2,130.8 128.2,209.2 v 455 c 0,93.8 -28.2,164.8 -84,212.4 -47.6,40.3 -109.7,60.4 -186.5,60.4 H 14582 v -740" /><g
         transform="scale(1.23513)"
         id="g76"><path
           id="path78"
           style="fill:#ffffff;fill-opacity:1;fill-rule:evenodd;stroke:none"
           d="m 15139.2,6434.11 c -38.9,-26.63 -83.8,-40.32 -133.6,-40.32 -50,0 -94.4,13.69 -133.3,40.32 -39.3,-26.63 -75.5,-40.32 -108.9,-40.32 -33.4,0 -61,3.41 -82.6,9.4 -21.2,6.47 -40.1,14.98 -56.2,25.74 -33,21.86 -49.5,49.31 -49.5,81.94 0,16.68 4.3,31.25 12.5,43.72 17,-14.17 38.6,-21.05 64.6,-21.05 68.3,0 115.5,31.73 141.5,95.21 v 614.59 c 0,38.62 -7.1,66.87 -21.6,85.33 -23.3,30.85 -62.6,61.78 -118.8,91.82 52.3,26.15 86.1,48.9 101.4,68.97 26,32.63 39,69.55 39,110.68 v 530.06 c -26,64.77 -73.2,96.92 -141.5,96.92 -26,0 -47.6,-7.29 -64.6,-21.46 -8.2,12.47 -12.5,27.04 -12.5,43.4 0,16.27 4.3,31.74 12.9,45.82 9.1,14.17 21.3,26.64 36.6,36.44 35.4,23.64 75.9,35.22 121.5,35.22 45.6,0 87.7,-13.77 126.2,-41.62 39.7,27.85 84.1,41.62 133.3,41.62 49.1,0 93.9,-13.77 133.6,-41.62 86.8,36.03 183.2,54 288.5,54 105.7,0 194.2,-10.28 265.4,-31.25 71.5,-21.05 132.9,-50.6 184.4,-89.22 103.7,-78.05 168.2,-186.13 193.4,-325.47 10.2,-61.78 46.7,-108.98 109.6,-140.71 -60.2,-36.84 -99,-95.62 -117.5,-175.85 -37.8,-165.98 -131.7,-269.29 -282.3,-310.5 77.5,-22.26 141.1,-69.06 190.3,-139.34 50.3,-72.94 75.9,-158.68 75.9,-257.29 v -125.66 c 0,-120.96 35.7,-198.6 106.9,-233.74 21.6,-11.17 45.2,-16.35 70.3,-16.35 25.6,0 46.4,6.88 63.4,21.05 8.6,-12.47 12.5,-27.04 12.5,-43.32 0,-16.27 -3.5,-31.33 -11.3,-45.9 -7.6,-14.17 -18.2,-26.15 -31.1,-36.44 -27.6,-23.15 -59.8,-35.14 -96.7,-35.14 -37,0 -73.2,11.1 -108.2,32.96 -64.4,-38.54 -125,-42.43 -180.8,-11.58 -21.6,-14.09 -44.4,-21.38 -68,-21.38 -23.9,0 -46.8,6 -68.8,17.58 -21.6,11.98 -41.3,31.25 -58.1,57.88 -35.8,57.89 -53.9,146.63 -53.9,266.29 v 93.11 c 0,193.42 -50.7,319.07 -152.2,376.96 -33.7,19.27 -73.1,28.74 -118.6,28.74 h -134.9 v -611.59 c 20.9,-59.59 60.5,-89.22 118.7,-89.22 26.4,0 47.6,6.88 64.5,21.05 8.6,-12.47 12.9,-30.85 12.9,-54.9 0,-24.45 -12.1,-48.01 -36.5,-71.16 -23.9,-23.16 -60.5,-34.74 -108.9,-34.74 -48.3,0 -91.1,13.69 -128.9,40.32 z m 299.5,1778.03 c -147.3,0 -221.3,-62.67 -221.3,-187.43 V 7540.23 L 14963,7400.57 h 442.4 l 0.1,1.05 c 54.5,0.33 93.2,3.73 115.8,10.69 23.2,7.28 43.2,19.27 60.2,36.92 34.5,35.94 51.9,96.43 51.9,180.95 v 367.08 c 0,104.69 -39.8,171.57 -120,200.71 -23.6,9.47 -48.7,14.17 -74.7,14.17" /></g><g
         transform="scale(1.12782)"
         id="g80"><path
           id="path82"
           style="fill:#ffffff;fill-opacity:1;fill-rule:nonzero;stroke:none"
           d="m 15960.1,5078.13 c 82.3,99.84 142.3,186.12 166.8,259.35 22.6,67.75 9.2,125.47 -55.9,176.19 -29.1,22.61 -69.1,34.04 -109.7,34.4 -40.9,0.26 -80.9,-10.46 -109.6,-32.37 -66.9,-50.98 -81,-108.97 -58.6,-176.97 24.2,-73.69 84.4,-160.4 167,-260.6 z m 297.3,215.64 c -36.1,-107.99 -124.4,-226.99 -242.6,-364.33 l -2.3,-2.84 -52.4,-61 -52.3,61 -2.5,2.84 c -118.9,138.32 -207.7,257.93 -243.3,366.11 -42.1,127.94 -16.6,236.11 106.1,329.66 53.5,40.78 124,60.91 193.7,60.38 70,-0.53 140.6,-21.63 193.8,-62.95 120.2,-93.46 144.4,-201.36 101.8,-328.87" /></g><g
         transform="scale(1.00817)"
         id="g84"><path
           id="path86"
           style="fill:#ffffff;fill-opacity:1;fill-rule:nonzero;stroke:none"
           d="M 9904.65,6822.55 H 16300 V 6670.1 H 9904.65 v 152.45" /></g><g
         transform="scale(1.59598)"
         id="g88"><path
           id="path90"
           style="fill:#ffffff;fill-opacity:1;fill-rule:nonzero;stroke:none"
           d="M 12260.1,4309.78 H 16300 v -96.31 h -4039.9 v 96.31" /></g><g
         transform="scale(1.09015)"
         id="g92"><path
           id="path94"
           style="fill:#ffffff;fill-opacity:1;fill-rule:nonzero;stroke:none"
           d="m 6735,6710.71 h 9063.2 v -0.28 c 233.9,0.92 387.6,-116.86 458,-269.41 27.8,-60.54 42.2,-126.68 43.1,-193.09 0.7,-66.14 -12.1,-132.64 -38.7,-194.19 -67.3,-155.49 -220.4,-278.5 -461,-283.82 h -2.5 c -177.9,3.12 -297.4,97.88 -352.8,215.66 -21.5,45.68 -33.2,95.13 -34.7,144.11 -1.5,49.53 7.4,98.79 27,143.65 45.4,103.56 145.2,182.45 302,187.04 h 2.2 c 130.7,-0.74 214.3,-64.58 251.8,-142.92 14.3,-29.72 21.8,-61.64 22.6,-93.2 0.3,-17.42 -1.2,-34.67 -4.9,-51.55 -45.6,-212.45 -339.7,-203.73 -339.7,-29.63 0,66.5 53.9,120.35 120.4,120.35 32.2,0 61.4,-12.57 83,-33.11 -1.3,8.99 -3.9,17.98 -8.1,26.6 -16.4,34.21 -56.9,62.19 -124,63.02 -93.7,-2.94 -151.6,-46.15 -176.4,-102.83 -11.3,-25.69 -16.4,-54.31 -15.5,-83.57 0.9,-29.81 8.2,-60.17 21.5,-88.52 34.5,-73.2 110.8,-132.18 226.5,-134.57 176.3,4.22 286.7,90.27 333.7,198.88 18.7,43.11 27.7,90.07 27.1,136.95 -0.5,46.51 -10.8,93.01 -30.4,135.76 -49.1,106.5 -159.4,188.69 -329.9,187.95 l -0.3,-0.27 H 6735 v 140.99" /></g><g
         transform="scale(1.75815)"
         id="g96"><path
           id="path98"
           style="fill:#ffffff;fill-opacity:1;fill-rule:nonzero;stroke:none"
           d="m 16300,4161.03 h -5619.7 v -0.17 c -145.1,0.57 -240.3,-72.47 -284,-167.05 -17.2,-37.54 -26.2,-78.55 -26.7,-119.73 -0.4,-41.01 7.5,-82.25 24,-120.41 41.7,-96.41 136.6,-172.68 285.8,-175.98 h 1.6 c 110.3,1.93 184.4,60.69 218.7,133.72 13.4,28.32 20.6,58.98 21.6,89.35 0.9,30.72 -4.6,61.26 -16.8,89.07 -28.2,64.22 -90,113.13 -187.3,115.98 h -1.3 c -81.1,-0.46 -132.9,-40.04 -156.1,-88.62 -8.9,-18.43 -13.5,-38.22 -14,-57.78 -0.3,-10.81 0.7,-21.51 3,-31.97 28.2,-131.73 210.6,-126.33 210.6,-18.37 0,41.23 -33.4,74.62 -74.6,74.62 -20,0 -38.1,-7.79 -51.5,-20.53 0.8,5.57 2.4,11.15 5,16.49 10.2,21.22 35.3,38.57 76.9,39.08 58.1,-1.82 94,-28.61 109.4,-63.76 7,-15.93 10.2,-33.67 9.6,-51.82 -0.6,-18.48 -5.1,-37.31 -13.3,-54.89 -21.4,-45.39 -68.7,-81.96 -140.5,-83.44 -109.3,2.62 -177.8,55.97 -206.9,123.32 -11.6,26.73 -17.2,55.85 -16.8,84.91 0.3,28.84 6.7,57.68 18.9,84.19 30.4,66.03 98.8,116.99 204.5,116.54 l 0.2,-0.17 H 16300 v 87.42" /></g><path
         id="path100"
         style="fill:#ffffff;fill-opacity:1;fill-rule:nonzero;stroke:none"
         d="m 7342.18,10950.5 h 6192.22 v 0.3 c 255.1,-1 422.6,127.4 499.2,293.7 30.4,66 46.1,138.1 47,210.5 0.9,72.1 -13.1,144.6 -42.2,211.7 -73.3,169.5 -240.2,303.6 -502.5,309.3 h -2.7 c -194,-3.3 -324.2,-106.6 -384.6,-235 -23.4,-49.9 -36.2,-103.7 -37.8,-157.1 -1.7,-54 8,-107.7 29.4,-156.6 49.5,-112.9 158.3,-198.9 329.2,-204 h 2.5 c 142.4,0.9 233.5,70.4 274.5,155.8 15.5,32.5 23.7,67.3 24.5,101.7 0.5,18.9 -1.3,37.8 -5.2,56.1 -49.8,231.7 -370.4,222.2 -370.4,32.4 0,-72.5 58.8,-131.3 131.2,-131.3 35.1,0 67,13.8 90.5,36.2 -1.3,-9.8 -4.2,-19.6 -8.7,-29 -17.9,-37.3 -62.1,-67.8 -135.2,-68.7 -102.2,3.2 -165.3,50.3 -192.4,112 -12.3,28 -17.8,59.3 -16.8,91.2 1,32.5 8.9,65.6 23.4,96.5 37.5,79.7 120.8,144.1 246.9,146.7 192.2,-4.6 312.5,-98.4 363.8,-216.8 20.3,-47.1 30.1,-98.2 29.5,-149.3 -0.6,-50.8 -11.7,-101.5 -33.2,-148.1 -53.4,-116.1 -173.7,-205.7 -359.6,-204.8 l -0.3,0.3 H 7342.18 v -153.7" /><path
         id="path102"
         style="fill:#ffffff;fill-opacity:1;fill-rule:nonzero;stroke:none"
         d="m 10033.2,11571.5 h 2843.2 v -153.7 h -2843.2 v 153.7" /><g
         transform="scale(1.75815)"
         id="g104"><path
           id="path106"
           style="fill:#ffffff;fill-opacity:1;fill-rule:nonzero;stroke:none"
           d="m 16300,6228.43 h -3522 v 0.17 c -145.1,-0.57 -240.4,72.46 -283.9,167.05 -17.3,37.54 -26.3,78.55 -26.8,119.73 -0.5,41.01 7.5,82.25 24,120.41 41.7,96.41 136.7,172.68 285.8,175.98 h 1.6 c 110.3,-1.93 184.4,-60.69 218.7,-133.72 13.3,-28.38 20.6,-58.98 21.5,-89.35 1,-30.72 -4.5,-61.26 -16.7,-89.07 -28.1,-64.22 -90,-113.14 -187.2,-116.03 h -1.5 c -80.9,0.51 -132.8,40.04 -156.1,88.61 -8.8,18.49 -13.5,38.28 -13.9,57.85 -0.3,10.75 0.7,21.5 2.9,31.9 28.4,131.79 210.7,126.39 210.7,18.43 0,-41.23 -33.4,-74.68 -74.6,-74.68 -20,0 -38.1,7.85 -51.5,20.59 0.8,-5.57 2.4,-11.15 5,-16.49 10.1,-21.22 35.3,-38.56 76.9,-39.08 58.1,1.82 94,28.61 109.4,63.71 7,15.92 10.1,33.72 9.6,51.87 -0.6,18.48 -5.1,37.31 -13.4,54.89 -21.3,45.33 -68.7,81.96 -140.4,83.44 -109.3,-2.62 -177.7,-55.97 -206.9,-123.31 -11.6,-26.8 -17.1,-55.86 -16.8,-84.92 0.4,-28.9 6.7,-57.74 18.9,-84.24 30.4,-66.04 98.8,-117 204.5,-116.49 l 0.2,0.17 h 3522 v -87.42" /></g><g
         transform="scale(1.59306)"
         id="g108"><path
           id="path110"
           style="fill:#ffffff;fill-opacity:1;fill-rule:nonzero;stroke:none"
           d="m 16300,7263.72 h -1784.7 v -96.49 H 16300 v 96.49" /></g><g
         transform="scale(1.58219)"
         id="g112"><path
           id="path114"
           style="fill:#ffffff;fill-opacity:1;fill-rule:evenodd;stroke:none"
           d="m 13903.8,7956.76 c 55.1,816.46 379.9,1625.16 834.8,2270.04 275.3,390.4 696,95.1 362.6,-255.24 -395.4,-415.46 -705.6,-1021.25 -948.7,-1730.26 29.9,5.88 59.3,11.44 87.7,16.94 92.3,17.95 268.5,52.14 348.9,100.3 70.5,42.22 91,102.71 114.6,189.17 17,99.92 52.9,122.55 136.2,151.12 L 16044,9028 c 66.1,16.72 103.9,24.97 133.6,-44.61 36.1,-84.65 60.8,-155.06 81,-206.57 41.4,-103.08 26.5,-125.71 -61.8,-154.78 l -2077.6,-547.09 c -8.1,-2.15 -16.1,-4.3 -24,-6.58 -15.5,-48.6 -30.8,-97.58 -45.8,-147.07 -42.1,-138.86 -156.2,-121.67 -145.6,35.46 z m 108.8,136.01 c -22.8,1.77 -39.8,21.74 -38,44.62 1.8,22.82 21.8,39.82 44.6,38.05 22.9,-1.83 39.9,-21.8 38,-44.62 -1.7,-22.88 -21.7,-39.88 -44.6,-38.05 z m 2144.3,585.01 c 23.8,6.95 65.1,24.02 39.6,90.57 -13,32.81 -37.1,118.68 -69.5,168.43 36.7,-175.13 63.3,-194.28 -7.6,-224.05 l -1274.5,-334.98 c -34.7,-9.1 -38.8,6.32 -41.6,26.68 -4.6,32.48 -12.6,83.42 -15,97.77 l -14,-130.07 c -5.2,-34.38 -5.7,-55.62 23.4,-53.03 z m -2307.4,-651.25 c -128.4,-14.15 -240.9,-44.37 -352.6,-164.7 -65,-60.81 -115.7,0.75 -49.5,73.56 108.9,119.77 259.7,190.25 416.9,237.9 -5.7,-48.73 -10.7,-97.65 -14.8,-146.76 z m 1152,2109.17 c -38.2,3.1 -66.6,36.5 -63.6,74.6 3,38.2 36.5,66.7 74.6,63.6 38.2,-3 66.7,-36.4 63.6,-74.6 -3.1,-38.1 -36.4,-66.6 -74.6,-63.6 z m -939.1,-1567.83 c 208.6,630.67 429.9,1113.18 637.7,1447.13 12.5,20 2.1,19.5 -8.4,5.8 -269.7,-348.69 -480.8,-832.53 -634.7,-1451.29 -2.2,-8.47 2.8,-9.48 5.4,-1.64" /></g><g
         transform="scale(1.03058)"
         id="g116"><path
           id="path118"
           style="fill:#ffffff;fill-opacity:1;fill-rule:evenodd;stroke:none"
           d="m 13586,12215.5 c -84.6,1253.5 -583.1,2495 -1281.5,3485.1 -422.8,599.4 -1068.5,146 -556.8,-391.9 607.1,-637.8 1083.4,-1567.8 1456.5,-2656.3 -45.9,9 -90.9,17.5 -134.6,26 -141.8,27.5 -412.2,80 -535.6,154 -108.2,64.8 -139.7,157.6 -175.9,290.4 -26.2,153.4 -81.3,188.1 -209.1,232 l -1848.7,505.3 c -101.4,25.7 -159.4,38.4 -205,-68.4 -55.5,-130 -93.4,-238.1 -124.42,-317.2 -63.56,-158.2 -40.66,-193 94.92,-237.6 l 3189.6,-839.9 c 12.4,-3.3 24.7,-6.6 36.8,-10.1 23.9,-74.6 47.4,-149.8 70.4,-225.8 64.6,-213.2 239.7,-186.8 223.4,54.4 z m -167,208.8 c 35.1,2.8 61.2,33.4 58.3,68.6 -2.7,35 -33.3,61.1 -68.4,58.4 -35.1,-2.9 -61.2,-33.5 -58.4,-68.5 2.7,-35.2 33.4,-61.3 68.5,-58.5 z m -3292,898.2 c -36.6,10.6 -99.9,36.8 -60.7,139 19.9,50.4 56.8,182.2 106.6,258.6 -56.4,-268.9 -97.2,-298.3 11.6,-344 l 1956.8,-514.2 c 53.2,-14 59.5,9.7 63.8,40.9 7,49.9 19.4,128.1 23,150.1 l 21.5,-199.7 c 8,-52.8 8.8,-85.4 -35.8,-81.4 z m 3542.4,-999.8 c 197.1,-21.8 369.9,-68.2 541.3,-252.9 99.9,-93.4 177.7,1.2 76.1,112.9 -167.2,183.9 -398.7,292.1 -640.1,365.3 8.8,-74.8 16.4,-150 22.7,-225.3 z m -1768.5,3238.1 c 58.6,4.7 102.2,55.9 97.6,114.5 -4.7,58.6 -55.9,102.3 -114.5,97.7 -58.6,-4.7 -102.3,-56 -97.6,-114.6 4.6,-58.5 55.8,-102.3 114.5,-97.6 z m 1441.7,-2407.1 c -320.2,968.3 -660.1,1709 -979,2221.8 -19.2,30.6 -3.2,29.8 12.9,8.8 413.9,-535.3 738.1,-1278.1 974.4,-2228 3.4,-13 -4.3,-14.6 -8.3,-2.6" /></g></g></g></svg>